<svg width="24" height="24" viewBox="0 0 24 24" fill="none" xmlns="http://www.w3.org/2000/svg">
<path d="M6.2958 8.2958C6.20207 8.38876 6.12768 8.49936 6.07691 8.62122C6.02614 8.74308 6 8.87379 6 9.0058C6 9.13781 6.02614 9.26852 6.07691 9.39038C6.12768 9.51223 6.20207 9.62284 6.2958 9.7158L11.2958 14.7158C11.3888 14.8095 11.4994 14.8839 11.6212 14.9347C11.7431 14.9855 11.8738 15.0116 12.0058 15.0116C12.1378 15.0116 12.2685 14.9855 12.3904 14.9347C12.5122 14.8839 12.6228 14.8095 12.7158 14.7158L17.7158 9.7158C17.8095 9.62283 17.8839 9.51223 17.9347 9.39037C17.9855 9.26852 18.0116 9.13781 18.0116 9.0058C18.0116 8.87379 17.9855 8.74308 17.9347 8.62122C17.8839 8.49936 17.8095 8.38876 17.7158 8.2958C17.6228 8.20207 17.5122 8.12768 17.3904 8.07691C17.2685 8.02614 17.1378 8 17.0058 8C16.8738 8 16.7431 8.02614 16.6212 8.07691C16.4994 8.12768 16.3888 8.20207 16.2958 8.2958L12.0058 12.5958L7.7158 8.2958C7.62284 8.20207 7.51223 8.12768 7.39037 8.07691C7.26852 8.02614 7.13781 8 7.0058 8C6.87379 8 6.74308 8.02614 6.62122 8.07691C6.49936 8.12768 6.38876 8.20207 6.2958 8.2958Z" fill="black"/>
</svg>
