<svg width="24" height="24" viewBox="0 0 24 24" fill="none" xmlns="http://www.w3.org/2000/svg">
<path d="M7.7553 1.63092C6.66921 1.632 5.61621 2.23889 5.19537 3.33356L1.27333 18.6226C0.679287 23.0541 5.07208 22.7824 7.74007 21.6881C11.5567 20.1226 16.2583 20.3187 20.0796 21.3009L20.382 20.4938C20.036 20.3701 19.6632 20.2131 19.3389 20.117C19.3611 19.9124 19.3837 19.7082 19.4063 19.5041L20.4862 19.6972L20.6378 18.8487C20.2593 18.7812 19.8809 18.7135 19.5024 18.6458C19.5312 18.3928 19.5604 18.1399 19.5901 17.887L20.6276 18.0406L20.7538 17.1882C20.4 17.1357 20.0461 17.0833 19.6923 17.0309C19.7136 16.8544 19.7349 16.6779 19.7567 16.5017C20.1137 16.5529 20.4707 16.604 20.8277 16.6551L20.9499 15.802L19.8641 15.6465C19.8856 15.4781 19.9245 15.1784 19.9466 15.0101L21.0144 15.1297L21.1103 14.3061C20.7602 14.2669 20.4102 14.2278 20.0602 14.1885C20.0969 13.9182 20.15 13.6643 20.1881 13.3943C20.5476 13.4468 20.9072 13.4995 21.2667 13.5522L21.375 12.7488C21.0149 12.696 20.6547 12.6433 20.2946 12.5906C20.3317 12.3368 20.3532 12.1158 20.3916 11.8621C20.7232 11.9213 21.0549 11.9806 21.3865 12.0398L21.538 11.1913L20.5229 11.0101C20.5574 10.7909 20.592 10.5718 20.6275 10.3526C20.9546 10.431 21.2816 10.5095 21.6086 10.588L21.8098 9.75C21.4629 9.66666 21.1159 9.58341 20.769 9.50016C20.8019 9.30513 20.8352 9.11018 20.869 8.9153C21.1961 8.9895 21.5234 9.06366 21.8506 9.13777L22.0411 8.2973C21.7003 8.21995 21.3594 8.1427 21.0185 8.06545C21.0546 7.86544 21.0912 7.66538 21.1283 7.46522L22.1006 7.70667L22.3083 6.87028L21.2887 6.61692C21.3235 6.43659 21.3588 6.25617 21.3944 6.07561L22.345 6.31064L22.5519 5.47397L21.5648 5.22989C21.6045 5.03644 21.6447 4.8431 21.6853 4.64986C22.0784 4.76283 22.3008 4.76067 22.6889 4.88377L22.7813 4.14638C18.8528 2.89125 14.3789 2.58919 11.3348 3.84389C10.194 9.18933 9.5861 14.222 8.14577 19.7176C7.98607 20.327 7.46749 20.7437 6.86412 21.0331C5.59849 21.5773 3.86257 21.679 2.89708 20.803C2.38282 20.3183 2.13893 19.5357 2.31269 18.5727C2.42065 17.9745 2.82283 17.5421 3.28929 17.3363C4.21502 17.0047 5.32797 17.137 6.0499 17.7089C6.6341 18.1449 6.6273 19.5034 5.86793 19.2005C5.4161 18.9113 5.77587 18.645 5.4641 18.3859C4.92035 18.0377 4.22566 17.8763 3.63729 18.1248C3.37648 18.2399 3.22071 18.3937 3.16076 18.7258C3.02294 19.4894 3.19287 19.8975 3.48818 20.1758C4.34754 20.8081 5.61063 20.6678 6.49137 20.256C6.96222 20.0301 7.25435 19.72 7.31219 19.4992C8.74366 14.0374 9.34858 8.99339 10.5134 3.56334C9.96049 2.23472 8.8414 1.62989 7.7553 1.63092Z" fill="black"/>
</svg>
