<svg width="32" height="32" viewBox="0 0 32 32" fill="none" xmlns="http://www.w3.org/2000/svg">
<path d="M6.63875 12.9133C3.99075 11.8547 2.66675 11.3253 2.66675 10.6667C2.66675 10.008 3.99075 9.48 6.63875 8.42L10.3827 6.92266C13.0307 5.86266 14.3561 5.33333 16.0001 5.33333C17.6454 5.33333 18.9694 5.86266 21.6174 6.92266L25.3614 8.42C28.0094 9.47866 29.3334 10.008 29.3334 10.6667C29.3334 11.3253 28.0094 11.8533 25.3614 12.9133L21.6174 14.4107C18.9694 15.472 17.6441 16 16.0001 16C14.3547 16 13.0307 15.4707 10.3827 14.412L6.64008 12.912L6.63875 12.9133Z" stroke="white" stroke-width="1.5"/>
<path opacity="0.5" d="M7.68808 13.3333L6.63875 13.7533C3.99075 14.812 2.66675 15.3427 2.66675 16C2.66675 16.6573 3.99075 17.1867 6.63875 18.2467L10.3827 19.744C13.0307 20.8053 14.3561 21.3333 16.0001 21.3333C17.6454 21.3333 18.9694 20.804 21.6174 19.7453L25.3614 18.2467C28.0094 17.188 29.3334 16.6573 29.3334 16C29.3334 15.3427 28.0094 14.8133 25.3614 13.7533L24.3121 13.3333M7.68808 18.6667L6.63875 19.0867C3.99075 20.1453 2.66675 20.676 2.66675 21.3333C2.66675 21.992 3.99075 22.52 6.63875 23.58L10.3827 25.0773C13.0307 26.1387 14.3561 26.6667 16.0001 26.6667C17.6454 26.6667 18.9694 26.1373 21.6174 25.0773L25.3614 23.58C28.0094 22.5213 29.3334 21.992 29.3334 21.3333C29.3334 20.676 28.0094 20.1467 25.3614 19.0867L24.3121 18.6667" stroke="white" stroke-width="1.5"/>
</svg>
