<svg width="150" height="150" viewBox="0 0 150 150" fill="none" xmlns="http://www.w3.org/2000/svg">
<path d="M130.481 35.1696L130.481 35.1697C132.407 35.9499 134.057 37.2875 135.218 39.011C136.38 40.7345 137 42.7655 137 44.8437V105.175C136.999 107.252 136.378 109.282 135.217 111.004C134.055 112.726 132.406 114.063 130.481 114.843L130.481 114.843L83.6184 133.843C78.0913 136.084 71.9087 136.084 66.3816 133.843L19.5191 114.843L19.519 114.843C17.5927 114.063 15.9432 112.725 14.7818 111.002C13.6204 109.278 13 107.247 13 105.169V44.85C13 42.7717 13.6204 40.7407 14.7818 39.0172C15.9432 37.2937 17.5927 35.9562 19.519 35.1759L19.5192 35.1758L66.3816 16.1696C66.3816 16.1696 66.3816 16.1696 66.3817 16.1696C71.9087 13.9287 78.0913 13.9287 83.6184 16.1696L130.481 35.1696ZM81.1619 24.2201L81.1683 24.2137L80.469 23.9304C76.9615 22.509 73.0385 22.509 69.531 23.9304L69.5308 23.9304L57.562 28.7867L56.3958 29.2599L57.5688 29.716L104.613 48.0098L104.793 48.08L104.974 48.0102L121.655 41.5727L122.834 41.1178L121.663 40.6429L81.1619 24.2201ZM91.9987 53.0165L93.2028 52.5519L92 52.084L45.275 33.909L45.09 33.837L44.9059 33.9116L28.4997 40.5616L27.3327 41.0346L28.5063 41.491L74.825 59.5035L75.0056 59.5737L75.1863 59.504L91.9987 53.0165ZM21.375 105.175L21.375 105.176C21.3761 105.586 21.499 105.986 21.7283 106.325C21.9574 106.665 22.2825 106.928 22.662 107.082L22.6622 107.082L69.5254 126.08C69.5264 126.08 69.5274 126.081 69.5283 126.081C69.7329 126.167 69.9424 126.245 70.15 126.317L70.8125 126.544V125.844V67.275V66.933L70.4937 66.809L22.0562 47.9715L21.375 47.7066V48.4375L21.375 105.175ZM127.338 107.082L127.338 107.082L128.125 105.169H128.625V105.168V48.5875V47.8585L127.945 48.1211L79.5074 66.821L79.1875 66.9446V67.2875V125.85V126.556L79.8537 126.322C80.0501 126.252 80.244 126.174 80.4238 126.101L80.4691 126.082L80.4693 126.082L127.338 107.082Z" fill="black" stroke="white"/>
</svg>
