<svg width="150" height="150" viewBox="0 0 150 150" fill="none" xmlns="http://www.w3.org/2000/svg">
<path d="M24.1688 116.688H9.875V84.875H18.25V107.812V108.312H18.75H24.1688H24.5556L24.6527 107.938C26.6889 100.09 33.7447 94.25 42.1875 94.25C50.6303 94.25 57.6861 100.09 59.7223 107.938L59.8194 108.312H60.2062H89.0625H89.5625V107.812V37.5V37H89.0625H0.5V28.625H97.9375V46.875V47.375H98.4375H138.946L139.853 50.2459L139.855 50.2534L149.23 78.3784L149.235 78.3926L149.241 78.4065L149.5 79.0528V116.688H135.206H134.819L134.722 117.062C132.686 124.91 125.63 130.75 117.188 130.75C108.745 130.75 101.689 124.91 99.6527 117.062L99.5556 116.688H99.1687H60.2062H59.8194L59.7223 117.062C57.6861 124.91 50.6303 130.75 42.1875 130.75C33.7447 130.75 26.6889 124.91 24.6527 117.062L24.5556 116.688H24.1688ZM98.4375 55.75H97.9375V56.25V107.812V108.312H98.4375H99.1687H99.5556L99.6527 107.938C101.689 100.09 108.745 94.25 117.188 94.25C125.63 94.25 132.686 100.09 134.722 107.938L134.819 108.312H135.206H140.625H141.125V107.812V80.2734V80.1918L141.099 80.1144L133.041 56.091L132.927 55.75H132.567H98.4375ZM46.375 55.75H5.1875V47.375H46.375V55.75ZM37 74.5H9.875V66.125H37V74.5ZM52.0625 112.5C52.0625 106.988 47.6996 102.625 42.1875 102.625C36.6754 102.625 32.3125 106.988 32.3125 112.5C32.3125 118.012 36.6754 122.375 42.1875 122.375C47.6996 122.375 52.0625 118.012 52.0625 112.5ZM127.062 112.5C127.062 106.988 122.7 102.625 117.188 102.625C111.675 102.625 107.312 106.988 107.312 112.5C107.312 118.012 111.675 122.375 117.188 122.375C122.7 122.375 127.062 118.012 127.062 112.5Z" fill="black" stroke="white"/>
</svg>
