<svg width="24" height="24" viewBox="0 0 24 24" fill="none" xmlns="http://www.w3.org/2000/svg">
<path d="M12.998 20H18.998V16H14.998V14H18.998V6H16.998V11L12.998 9.4V20ZM10.998 20V9.4L6.99805 11V6H4.99805V20H10.998ZM6.99805 4V3H16.998V4H19.998C20.2633 4 20.5176 4.10536 20.7052 4.29289C20.8927 4.48043 20.998 4.73478 20.998 5V21C20.998 21.2652 20.8927 21.5196 20.7052 21.7071C20.5176 21.8946 20.2633 22 19.998 22H3.99805C3.73283 22 3.47848 21.8946 3.29094 21.7071C3.1034 21.5196 2.99805 21.2652 2.99805 21V5C2.99805 4.73478 3.1034 4.48043 3.29094 4.29289C3.47848 4.10536 3.73283 4 3.99805 4H6.99805ZM11.998 8L15.498 5H8.49805L11.998 8Z" fill="black"/>
</svg>
