<svg width="32" height="32" viewBox="0 0 32 32" fill="none" xmlns="http://www.w3.org/2000/svg">
<path d="M19.7333 29.9667L19.1666 28.7C18.9888 28.3222 18.8608 27.928 18.7826 27.5173C18.7044 27.1067 18.6657 26.6898 18.6666 26.2667C18.6666 25.7778 18.7221 25.2947 18.8333 24.8173C18.9444 24.34 19.111 23.8787 19.3333 23.4333C19.511 23.0555 19.6666 22.6724 19.7999 22.284C19.9333 21.8955 19.9999 21.4898 19.9999 21.0667C19.9999 20.7333 19.9608 20.4111 19.8826 20.1C19.8044 19.7889 19.699 19.4778 19.5666 19.1667L19.0999 18.1667L20.9333 17.3667L21.4999 18.5667C21.6777 18.9444 21.8057 19.3444 21.8839 19.7667C21.9621 20.1889 22.0008 20.6222 21.9999 21.0667C21.9999 21.5555 21.9444 22.0333 21.8333 22.5C21.7221 22.9667 21.5555 23.4222 21.3333 23.8667C21.1555 24.2444 20.9999 24.6333 20.8666 25.0333C20.7333 25.4333 20.6666 25.8444 20.6666 26.2667C20.6666 26.5778 20.6999 26.8835 20.7666 27.184C20.8333 27.4844 20.9333 27.7787 21.0666 28.0667L21.5666 29.1667L19.7333 29.9667ZM23.7332 29.9667L23.1666 28.7C22.9888 28.3222 22.8608 27.928 22.7826 27.5173C22.7044 27.1067 22.6657 26.6898 22.6666 26.2667C22.6666 25.7778 22.7221 25.2947 22.8333 24.8173C22.9444 24.34 23.111 23.8787 23.3333 23.4333C23.511 23.0555 23.6666 22.6724 23.7999 22.284C23.9333 21.8955 23.9999 21.4898 23.9999 21.0667C23.9999 20.7333 23.9608 20.4111 23.8826 20.1C23.8044 19.7889 23.699 19.4778 23.5666 19.1667L23.0999 18.1667L24.9333 17.3667L25.4999 18.5667C25.6777 18.9667 25.8057 19.3724 25.8839 19.784C25.9621 20.1955 26.0008 20.6231 25.9999 21.0667C25.9999 21.5555 25.9444 22.0333 25.8333 22.5C25.7221 22.9667 25.5555 23.4222 25.3333 23.8667C25.1555 24.2444 24.9999 24.6333 24.8666 25.0333C24.7332 25.4333 24.6666 25.8444 24.6666 26.2667C24.6666 26.5778 24.6999 26.8835 24.7666 27.184C24.8333 27.4844 24.9333 27.7787 25.0666 28.0667L25.5666 29.1667L23.7332 29.9667ZM27.7332 29.9667L27.1666 28.7C26.9888 28.3222 26.8608 27.928 26.7826 27.5173C26.7044 27.1067 26.6657 26.6898 26.6666 26.2667C26.6666 25.7778 26.7221 25.2947 26.8333 24.8173C26.9444 24.34 27.111 23.8787 27.3333 23.4333C27.511 23.0555 27.6666 22.6724 27.7999 22.284C27.9333 21.8955 27.9999 21.4898 27.9999 21.0667C27.9999 20.7333 27.9608 20.4111 27.8826 20.1C27.8044 19.7889 27.699 19.4778 27.5666 19.1667L27.0999 18.1667L28.9333 17.3667L29.4999 18.5667C29.6777 18.9444 29.8057 19.3444 29.8839 19.7667C29.9621 20.1889 30.0008 20.6222 29.9999 21.0667C29.9999 21.5555 29.9444 22.0391 29.8333 22.5173C29.7221 22.9955 29.5555 23.4564 29.3333 23.9C29.1555 24.2778 28.9999 24.6613 28.8666 25.0507C28.7332 25.44 28.6666 25.8453 28.6666 26.2667C28.6666 26.5778 28.6999 26.8835 28.7666 27.184C28.8333 27.4844 28.9333 27.7787 29.0666 28.0667L29.5666 29.1667L27.7332 29.9667ZM5.33325 18.4C5.33325 16.1778 6.21681 13.7609 7.98392 11.1493C9.75103 8.53777 12.423 5.71021 15.9999 2.66666C18.6221 4.88888 20.7501 6.99999 22.3839 8.99999C24.0177 11 25.1897 12.9 25.8999 14.7H18.6666C17.9333 14.7 17.3053 14.9613 16.7826 15.484C16.2599 16.0067 15.999 16.6338 15.9999 17.3653V29.3333C12.9555 29.3333 10.4164 28.2889 8.38259 26.2C6.34881 24.1111 5.33236 21.5111 5.33325 18.4Z" fill="white"/>
</svg>
